<?xml version="1.0" ?><!DOCTYPE svg  PUBLIC '-//W3C//DTD SVG 1.1//EN'  'http://www.w3.org/Graphics/SVG/1.1/DTD/svg11.dtd'><svg enable-background="new 0 0 75 75" height="75px" id="Layer_1" version="1.1" viewBox="0 0 75 75" width="75px" xml:space="preserve" xmlns="http://www.w3.org/2000/svg" xmlns:xlink="http://www.w3.org/1999/xlink"><g><g><path d="M42.633,33.243l-4.016-2.316c-0.691-0.4-1.545-0.4-2.236-0.002l-4.016,2.318    c-0.693,0.4-1.119,1.139-1.119,1.939v4.637c0,0.799,0.426,1.537,1.117,1.938l4.018,2.318c0.346,0.201,0.732,0.301,1.119,0.301    c0.385,0,0.771-0.1,1.117-0.301l4.016-2.318c0.693-0.4,1.119-1.139,1.119-1.938v-4.637C43.752,34.382,43.326,33.644,42.633,33.243    z M39.277,38.528L37.5,39.554l-1.779-1.027v-2.053l1.779-1.027l1.777,1.027V38.528z" fill="#D9F1FF"/><path d="M63.736,50.063l-2.219-1.281l1.283-0.74c1.07-0.619,1.438-1.986,0.82-3.057s-1.984-1.438-3.055-0.82    l-3.525,2.033l-0.785-0.451l1.285-0.742c1.07-0.619,1.436-1.988,0.818-3.057c-0.619-1.07-1.986-1.436-3.059-0.818l-3.521,2.033    l-0.383-0.221V32.06l0.385-0.223l3.52,2.035c0.355,0.203,0.74,0.299,1.119,0.299c0.773,0,1.525-0.4,1.939-1.117    c0.619-1.07,0.252-2.439-0.818-3.057l-1.283-0.742l0.783-0.453l3.521,2.033c0.354,0.205,0.736,0.301,1.117,0.301    c0.773,0,1.525-0.4,1.939-1.119c0.617-1.068,0.252-2.438-0.818-3.057l-1.285-0.742l2.223-1.283    c1.07-0.617,1.438-1.984,0.818-3.055c-0.615-1.07-1.986-1.438-3.055-0.818l-2.223,1.283V20.86c0-1.236-1.002-2.238-2.238-2.238    l0,0c-1.236,0-2.238,1.004-2.238,2.238v4.066l-0.785,0.453v-1.484c0-1.234-1.002-2.236-2.236-2.236h-0.002    c-1.236,0.002-2.236,1.004-2.236,2.238l0.002,4.064l-0.387,0.223l-9.424-5.439V22.3l3.521-2.033    c1.07-0.619,1.438-1.986,0.818-3.057c-0.617-1.07-1.984-1.438-3.055-0.818l-1.285,0.74v-0.904l3.523-2.031    c1.068-0.619,1.436-1.986,0.818-3.057s-1.984-1.438-3.057-0.82l-1.283,0.742V8.495c0-1.236-1.002-2.238-2.238-2.238    s-2.236,1.002-2.236,2.238v2.564l-1.285-0.74c-1.07-0.619-2.439-0.252-3.057,0.818s-0.25,2.439,0.818,3.057l3.521,2.031v0.908    l-1.283-0.742c-1.07-0.619-2.439-0.25-3.057,0.82c-0.615,1.07-0.25,2.439,0.82,3.057l3.52,2.029v0.449l-9.422,5.439l-0.387-0.223    v-4.066c0-1.234-1-2.238-2.236-2.238l0,0c-1.236,0-2.236,1.002-2.236,2.238l-0.002,1.482l-0.783-0.453l0.002-4.066    c0-1.234-1.002-2.238-2.238-2.238l0,0c-1.236,0-2.236,1.002-2.236,2.238l-0.002,1.484l-2.221-1.283    c-1.07-0.619-2.438-0.252-3.057,0.818c-0.617,1.07-0.25,2.438,0.82,3.055l2.221,1.283l-1.285,0.742    c-1.07,0.617-1.438,1.984-0.818,3.057c0.414,0.717,1.166,1.119,1.939,1.119c0.379,0,0.764-0.098,1.115-0.301l3.523-2.033    l0.783,0.453l-1.283,0.74c-1.07,0.617-1.436,1.986-0.816,3.055c0.414,0.719,1.166,1.119,1.939,1.119    c0.379,0,0.764-0.096,1.115-0.301l3.516-2.031l0.391,0.225V42.94l-0.387,0.223l-3.52-2.033c-1.07-0.619-2.439-0.252-3.057,0.818    s-0.252,2.439,0.818,3.057l1.283,0.742L17.957,46.2l-3.521-2.033c-1.07-0.619-2.439-0.252-3.057,0.818s-0.25,2.438,0.82,3.057    l1.285,0.742l-2.223,1.281c-1.07,0.619-1.438,1.986-0.82,3.057c0.416,0.719,1.166,1.119,1.941,1.119    c0.379,0,0.764-0.096,1.115-0.301l2.221-1.281l0.002,1.482c0,1.236,1,2.236,2.236,2.236l0,0c1.236,0,2.238-1.002,2.238-2.236    l-0.002-4.066l0.785-0.453v1.484c0,1.234,1.002,2.234,2.238,2.234l0,0c1.236,0,2.236-1.002,2.236-2.238l-0.002-4.064l0.389-0.223    l9.42,5.439v0.447l-3.52,2.033c-1.07,0.619-1.436,1.986-0.818,3.057c0.416,0.717,1.168,1.119,1.939,1.119    c0.381,0,0.766-0.098,1.117-0.301l1.281-0.74v0.902l-3.52,2.035c-1.07,0.617-1.436,1.986-0.818,3.055    c0.617,1.07,1.984,1.438,3.057,0.818l1.283-0.74v2.564c0,1.236,1,2.238,2.236,2.238s2.238-1.002,2.238-2.238V63.94l1.283,0.742    c0.354,0.203,0.738,0.301,1.119,0.301c0.771,0,1.523-0.402,1.939-1.119c0.617-1.07,0.25-2.439-0.818-3.057l-3.525-2.035v-0.906    l1.285,0.742c1.07,0.619,2.439,0.252,3.057-0.818s0.252-2.439-0.818-3.057L39.734,52.7v-0.443l9.424-5.439l0.385,0.221    l0.002,4.066c0,1.236,1,2.236,2.236,2.236l0,0c1.236,0,2.238-1.002,2.238-2.236l-0.002-1.482l0.783,0.451l0.002,4.068    c0.002,1.234,1.004,2.236,2.24,2.236c0,0,0,0,0.002,0c1.234,0,2.234-1.004,2.234-2.238v-1.482l2.221,1.281    c0.352,0.205,0.736,0.301,1.115,0.301c0.773,0,1.525-0.402,1.939-1.119C65.172,52.05,64.807,50.681,63.736,50.063z M45.744,42.263    c-0.273,0.475-0.344,1.006-0.256,1.506l-6.559,3.785c-0.389-0.326-0.885-0.531-1.432-0.531c-0.549,0-1.043,0.203-1.432,0.531    l-6.559-3.787c0.088-0.5,0.018-1.031-0.256-1.506c-0.273-0.473-0.699-0.801-1.176-0.973v-7.584    c0.475-0.174,0.898-0.492,1.172-0.965c0.273-0.475,0.344-1.004,0.256-1.504l6.564-3.789c0.389,0.326,0.883,0.529,1.43,0.529    s1.041-0.203,1.43-0.529l6.562,3.789c-0.088,0.498-0.018,1.029,0.256,1.502c0.273,0.475,0.699,0.793,1.176,0.967v7.584    C46.443,41.46,46.018,41.788,45.744,42.263z" fill="#D9F1FF"/></g><g><path d="M42.633,35.077l-4.016-2.318c-0.691-0.398-1.545-0.398-2.236,0l-4.016,2.318    c-0.693,0.4-1.119,1.139-1.119,1.938v2.805c0,0.799,0.426,1.537,1.117,1.938l4.018,2.318c0.346,0.201,0.732,0.301,1.119,0.301    c0.385,0,0.771-0.1,1.117-0.301l4.016-2.318c0.693-0.4,1.119-1.139,1.119-1.938v-2.805C43.752,36.216,43.326,35.478,42.633,35.077    z M39.277,38.308v0.221v1.832L37.5,41.388l-1.779-1.027v-1.834v-0.219v-1.834l1.779-1.027l1.777,1.027V38.308z" fill="#77B7F2"/><path d="M42.633,35.077l-4.016-2.318c-0.346-0.199-0.732-0.299-1.119-0.299v2.986H37.5l1.777,1.027v1.834v0.221    v1.832L37.5,41.388h-0.002v2.988H37.5c0.385,0,0.771-0.1,1.117-0.301l4.016-2.318c0.693-0.4,1.119-1.139,1.119-1.938v-2.805    C43.752,36.216,43.326,35.478,42.633,35.077z" fill="#AEDCFF"/><path d="M63.736,51.897l-2.219-1.281l1.283-0.74c0.1-0.057,0.186-0.127,0.271-0.195l-1.555-0.898l1.283-0.74    c0.422-0.242,0.729-0.604,0.914-1.014c-0.031-0.07-0.055-0.143-0.094-0.209c-0.617-1.07-1.984-1.438-3.055-0.82l-3.525,2.033    l-0.785-0.453l1.285-0.742c0.594-0.342,0.961-0.92,1.074-1.545l-1.574,0.906l-0.785-0.451l1.285-0.742    c0.42-0.244,0.727-0.604,0.912-1.014c-0.031-0.07-0.055-0.143-0.094-0.211c-0.619-1.068-1.986-1.434-3.059-0.818l-3.521,2.035    l-0.383-0.221v-1.834v-9.049V32.06l0.385-0.223l3.52,2.035c0.355,0.203,0.74,0.299,1.119,0.299c0.773,0,1.525-0.4,1.939-1.117    c0.039-0.068,0.064-0.141,0.096-0.211c-0.186-0.41-0.494-0.77-0.914-1.012l-1.283-0.744l0.783-0.451l1.574,0.908    c-0.111-0.627-0.479-1.203-1.074-1.547l-1.283-0.742l0.783-0.453l3.521,2.033c0.354,0.205,0.736,0.301,1.117,0.301    c0.773,0,1.525-0.4,1.939-1.119c0.039-0.066,0.062-0.139,0.094-0.209c-0.186-0.41-0.492-0.771-0.912-1.014l-1.285-0.742    l1.555-0.896c-0.086-0.068-0.172-0.139-0.27-0.195l-1.285-0.742l2.223-1.283c0.42-0.242,0.727-0.602,0.914-1.012    c-0.031-0.07-0.057-0.143-0.096-0.211c-0.615-1.07-1.986-1.436-3.055-0.818l-2.223,1.283v-1.484c0-1.234-1.002-2.236-2.238-2.236    c-1.234,0-2.236,1-2.238,2.234v2.236v1.834l-0.785,0.453v-1.484c0-1.234-1.002-2.236-2.236-2.236h-0.002    c-1.232,0-2.232,1-2.236,2.232l0.002,2.236v1.834l-0.387,0.223l-9.424-5.439v-0.447l1.201-0.693l-1.201-0.693V22.3l3.521-2.033    c0.42-0.244,0.727-0.604,0.914-1.014c-0.031-0.07-0.057-0.143-0.096-0.211c-0.617-1.068-1.984-1.438-3.055-0.818l-1.285,0.742    v-0.904l1.285-1.67l-1.285,0.74v-0.904l3.523-2.031c0.42-0.244,0.727-0.604,0.912-1.014c-0.031-0.07-0.055-0.143-0.094-0.209    c-0.617-1.07-1.984-1.438-3.057-0.82l-1.283,0.742v-1.834v-0.734c0-1.234-1.002-2.236-2.238-2.236s-2.236,1.002-2.236,2.236v0.732    v1.834l-1.285-0.74c-1.07-0.621-2.439-0.252-3.057,0.818c-0.039,0.068-0.062,0.139-0.094,0.209    c0.186,0.41,0.492,0.771,0.912,1.014l3.521,2.031v0.908l-1.283-0.742l1.283,1.668v0.906l-1.283-0.74    c-1.07-0.619-2.439-0.25-3.057,0.82c-0.039,0.068-0.062,0.139-0.094,0.209c0.188,0.41,0.494,0.771,0.914,1.014l3.52,2.029v0.449    l-1.199,0.693l1.199,0.691v0.449l-9.422,5.439l-0.387-0.223v-1.834v-2.236c-0.002-1.234-1.002-2.234-2.236-2.234    c-1.236,0-2.236,1.002-2.236,2.236l-0.002,1.484l-0.783-0.453v-1.832v-0.002v-2.238c-0.004-1.232-1.002-2.232-2.236-2.232    c-1.236,0-2.236,1.002-2.236,2.236l-0.002,1.484l-2.221-1.283c-1.07-0.617-2.438-0.252-3.057,0.818    c-0.039,0.068-0.062,0.141-0.094,0.211c0.186,0.41,0.494,0.77,0.914,1.012l2.221,1.283l-1.285,0.742    c-0.098,0.057-0.184,0.125-0.27,0.193l1.555,0.898l-1.285,0.742c-0.42,0.242-0.727,0.602-0.914,1.012    c0.031,0.07,0.057,0.143,0.096,0.211c0.414,0.717,1.166,1.119,1.939,1.119c0.379,0,0.764-0.098,1.115-0.301l3.523-2.033    l0.783,0.453l-1.283,0.74c-0.594,0.344-0.961,0.92-1.072,1.547l1.572-0.906l0.783,0.451l-1.283,0.742    c-0.42,0.242-0.727,0.602-0.912,1.012c0.031,0.07,0.055,0.143,0.096,0.209c0.414,0.719,1.166,1.119,1.939,1.119    c0.379,0,0.764-0.096,1.115-0.301l3.516-2.031l0.391,0.225v1.834v9.045v1.834l-0.387,0.223l-3.52-2.033    c-1.07-0.619-2.439-0.252-3.057,0.818c-0.039,0.068-0.064,0.141-0.096,0.209c0.188,0.412,0.494,0.771,0.914,1.014l1.283,0.742    L17.957,46.2l-1.574-0.91c0.111,0.627,0.479,1.205,1.074,1.549l1.283,0.742l-0.783,0.451l-3.521-2.033    c-1.07-0.617-2.439-0.25-3.057,0.818c-0.039,0.068-0.062,0.141-0.094,0.211c0.186,0.41,0.492,0.77,0.914,1.014l1.285,0.742    l-1.555,0.896c0.086,0.068,0.17,0.137,0.27,0.193l1.285,0.742l-2.223,1.283c-0.42,0.242-0.729,0.604-0.914,1.014    c0.031,0.07,0.055,0.141,0.094,0.209c0.416,0.719,1.166,1.119,1.941,1.119c0.379,0,0.764-0.096,1.115-0.301l2.221-1.281    l0.002,1.482c0,1.236,1,2.236,2.236,2.236c1.234,0,2.232-0.998,2.236-2.23v-2.238v-0.002v-1.832l0.785-0.453v1.484    c0,1.234,1.002,2.234,2.238,2.234c1.232,0,2.23-0.996,2.236-2.229l-0.002-2.24h0.002l-0.002-1.834l0.389-0.223l9.42,5.439v0.447    l-1.201,0.693l1.201,0.693v0.445l-3.52,2.035c-0.42,0.242-0.727,0.602-0.912,1.012c0.031,0.07,0.055,0.143,0.094,0.211    c0.416,0.717,1.168,1.119,1.939,1.119c0.381,0,0.766-0.098,1.117-0.301l1.281-0.74v0.902l-3.154,1.822    c0.244,0.088,0.496,0.148,0.756,0.148c0.381,0,0.766-0.096,1.117-0.301l1.281-0.738v0.902l-3.52,2.033    c-0.42,0.244-0.727,0.604-0.914,1.014c0.031,0.07,0.057,0.143,0.096,0.209c0.617,1.07,1.984,1.438,3.057,0.818l1.283-0.74v1.834    v0.73c0,1.236,1,2.238,2.236,2.238s2.238-1.002,2.238-2.238v-0.73V63.94l1.283,0.742c0.354,0.203,0.738,0.301,1.119,0.301    c0.771,0,1.523-0.402,1.939-1.119c0.039-0.068,0.062-0.139,0.094-0.209c-0.186-0.412-0.492-0.771-0.912-1.014l-3.525-2.035V59.7    l1.285,0.742c0.596,0.344,1.279,0.373,1.879,0.156l-3.164-1.826v-0.906l1.285,0.742c1.07,0.619,2.439,0.252,3.057-0.818    c0.039-0.068,0.062-0.139,0.094-0.209c-0.186-0.412-0.492-0.771-0.912-1.014l-3.523-2.033v-0.445l1.203-0.693L39.734,52.7v-0.443    l9.424-5.439l0.385,0.221l0.002,4.066c0,1.236,1,2.236,2.236,2.236s2.238-1.002,2.238-2.236l-0.002-1.482l0.783,0.451l0.002,4.068    c0.002,1.234,1.004,2.236,2.24,2.236c0,0,0,0,0.002,0c1.234,0,2.234-1.004,2.234-2.238v-1.482l2.221,1.281    c0.352,0.205,0.736,0.301,1.115,0.301c0.773,0,1.525-0.402,1.939-1.119c0.039-0.068,0.064-0.139,0.096-0.209    C64.463,52.499,64.156,52.14,63.736,51.897z M46.922,35.538v5.75v1.834c-0.479,0.172-0.904,0.5-1.178,0.975    c-0.273,0.473-0.344,1.004-0.256,1.504l-6.559,3.787c-0.389-0.328-0.885-0.531-1.432-0.531c-0.549,0-1.043,0.203-1.432,0.529    l-6.559-3.785c0.088-0.5,0.018-1.031-0.256-1.506s-0.699-0.801-1.176-0.975v-1.832v-5.75v-1.834    c0.475-0.174,0.898-0.492,1.172-0.965c0.273-0.475,0.344-1.004,0.256-1.504l6.564-3.789c0.389,0.326,0.883,0.529,1.43,0.529    s1.041-0.203,1.43-0.529l6.562,3.789c-0.088,0.498-0.018,1.029,0.256,1.502c0.273,0.475,0.699,0.793,1.176,0.967V35.538z" fill="#77B7F2"/><path d="M37.498,27.976V8.091c-1.236,0-2.236,1.002-2.236,2.236v0.732v1.834l-1.285-0.74    c-1.07-0.621-2.439-0.252-3.057,0.818c-0.039,0.068-0.062,0.139-0.094,0.209c0.186,0.41,0.492,0.771,0.912,1.014l3.521,2.031    v0.908l-1.283-0.742l1.283,1.668v0.906l-1.283-0.74c-1.07-0.619-2.439-0.25-3.057,0.82c-0.039,0.068-0.062,0.139-0.094,0.209    c0.188,0.41,0.494,0.771,0.914,1.014l3.52,2.029v0.449l-1.199,0.693l1.199,0.691v0.449l-9.422,5.439l-0.387-0.223v-1.834v-2.236    c-0.002-1.234-1.002-2.234-2.236-2.234c-1.236,0-2.236,1.002-2.236,2.236l-0.002,1.484l-0.783-0.453v-1.832v-0.002v-2.238    c-0.004-1.232-1.002-2.232-2.236-2.232c-1.236,0-2.236,1.002-2.236,2.236l-0.002,1.484l-2.221-1.283    c-1.07-0.617-2.438-0.252-3.057,0.818c-0.039,0.068-0.062,0.141-0.094,0.211c0.186,0.41,0.494,0.77,0.914,1.012l2.221,1.283    l-1.285,0.742c-0.098,0.057-0.184,0.125-0.27,0.193l1.555,0.898l-1.285,0.742c-0.42,0.242-0.727,0.602-0.914,1.012    c0.031,0.07,0.057,0.143,0.096,0.211c0.414,0.717,1.166,1.119,1.939,1.119c0.379,0,0.764-0.098,1.115-0.301l3.523-2.033    l0.783,0.453l-1.283,0.74c-0.594,0.344-0.961,0.92-1.072,1.547l1.572-0.906l0.783,0.451l-1.283,0.742    c-0.42,0.242-0.727,0.602-0.912,1.012c0.031,0.07,0.055,0.143,0.096,0.209c0.414,0.719,1.166,1.119,1.939,1.119    c0.379,0,0.764-0.096,1.115-0.301l3.516-2.031l0.391,0.225v1.834v9.045v1.834l-0.387,0.223l-3.52-2.033    c-1.07-0.619-2.439-0.252-3.057,0.818c-0.039,0.068-0.064,0.141-0.096,0.209c0.188,0.412,0.494,0.771,0.914,1.014l1.283,0.742    L17.957,46.2l-1.574-0.91c0.111,0.627,0.479,1.205,1.074,1.549l1.283,0.742l-0.783,0.451l-3.521-2.033    c-1.07-0.617-2.439-0.25-3.057,0.818c-0.039,0.068-0.062,0.141-0.094,0.211c0.186,0.41,0.492,0.77,0.914,1.014l1.285,0.742    l-1.555,0.896c0.086,0.068,0.17,0.137,0.27,0.193l1.285,0.742l-2.223,1.283c-0.42,0.242-0.729,0.604-0.914,1.014    c0.031,0.07,0.055,0.141,0.094,0.209c0.416,0.719,1.166,1.119,1.941,1.119c0.379,0,0.764-0.096,1.115-0.301l2.221-1.281    l0.002,1.482c0,1.236,1,2.236,2.236,2.236c1.234,0,2.232-0.998,2.236-2.23v-2.238v-0.002v-1.832l0.785-0.453v1.484    c0,1.234,1.002,2.234,2.238,2.234c1.232,0,2.23-0.996,2.236-2.229l-0.002-2.24h0.002l-0.002-1.834l0.389-0.223l9.42,5.439v0.447    l-1.201,0.693l1.201,0.693v0.445l-3.52,2.035c-0.42,0.242-0.727,0.602-0.912,1.012c0.031,0.07,0.055,0.143,0.094,0.211    c0.416,0.717,1.168,1.119,1.939,1.119c0.381,0,0.766-0.098,1.117-0.301l1.281-0.74v0.902l-3.154,1.822    c0.244,0.088,0.496,0.148,0.756,0.148c0.381,0,0.766-0.096,1.117-0.301l1.281-0.738v0.902l-3.52,2.033    c-0.42,0.244-0.727,0.604-0.914,1.014c0.031,0.07,0.057,0.143,0.096,0.209c0.617,1.07,1.984,1.438,3.057,0.818l1.283-0.74v1.834    v0.73c0,1.236,1,2.238,2.236,2.238V48.856c-0.549,0-1.043,0.203-1.432,0.529l-6.559-3.785c0.088-0.5,0.018-1.031-0.256-1.506    s-0.699-0.801-1.176-0.975v-1.832v-5.75v-1.834c0.475-0.174,0.898-0.492,1.172-0.965c0.273-0.475,0.344-1.004,0.256-1.504    l6.564-3.789C36.457,27.772,36.951,27.976,37.498,27.976z" fill="#AEDCFF"/></g></g></svg>